<?xml version="1.0" encoding="UTF-8" standalone="no"?>
<!-- Created with Inkscape (http://www.inkscape.org/) -->
<svg
   xmlns:dc="http://purl.org/dc/elements/1.1/"
   xmlns:cc="http://creativecommons.org/ns#"
   xmlns:rdf="http://www.w3.org/1999/02/22-rdf-syntax-ns#"
   xmlns:svg="http://www.w3.org/2000/svg"
   xmlns="http://www.w3.org/2000/svg"
   xmlns:sodipodi="http://sodipodi.sourceforge.net/DTD/sodipodi-0.dtd"
   xmlns:inkscape="http://www.inkscape.org/namespaces/inkscape"
   width="57.972691"
   height="143.23633"
   id="svg3730"
   sodipodi:version="0.32"
   inkscape:version="0.46"
   version="1.0"
   sodipodi:docname="chsym_card_E_c.svg"
   inkscape:output_extension="org.inkscape.output.svg.inkscape">
  <defs
     id="defs3732">
    <inkscape:perspective
       sodipodi:type="inkscape:persp3d"
       inkscape:vp_x="0 : 526.18109 : 1"
       inkscape:vp_y="0 : 1000 : 0"
       inkscape:vp_z="744.09448 : 526.18109 : 1"
       inkscape:persp3d-origin="372.04724 : 350.78739 : 1"
       id="perspective3738" />
  </defs>
  <sodipodi:namedview
     id="base"
     pagecolor="#ffffff"
     bordercolor="#666666"
     borderopacity="1.0"
     inkscape:pageopacity="0.0"
     inkscape:pageshadow="2"
     inkscape:zoom="0.35"
     inkscape:cx="350"
     inkscape:cy="520"
     inkscape:document-units="px"
     inkscape:current-layer="layer1"
     showgrid="false"
     inkscape:window-width="788"
     inkscape:window-height="811"
     inkscape:window-x="1124"
     inkscape:window-y="360" />
  <metadata
     id="metadata3735">
    <rdf:RDF>
      <cc:Work
         rdf:about="">
        <dc:format>image/svg+xml</dc:format>
        <dc:type
           rdf:resource="http://purl.org/dc/dcmitype/StillImage" />
      </cc:Work>
    </rdf:RDF>
  </metadata>
  <g
     inkscape:label="Ebene 1"
     inkscape:groupmode="layer"
     id="layer1"
     transform="translate(-145.29937,-37.886878)">
    <g
       id="g8860"
       style="stroke:#000000;stroke-width:1.0629921;stroke-miterlimit:3.9878788;stroke-dasharray:none;stroke-opacity:1"
       transform="translate(-78.200627,-446.57362)">
      <g
         transform="matrix(1.303675,-4.2114589e-2,4.5525333e-2,1.206004,-129.15515,71.777981)"
         id="g6595"
         style="stroke:#000000;stroke-width:0.84723985;stroke-miterlimit:3.9878788;stroke-dasharray:none;stroke-opacity:1">
        <path
           style="fill:none;fill-rule:evenodd;stroke:#000000;stroke-width:0.84723985;stroke-linecap:butt;stroke-linejoin:miter;stroke-miterlimit:3.9878788;stroke-dasharray:none;stroke-opacity:1"
           d="M 285.43971,376.04366 L 296.21888,378.23671 L 292.67296,366.82428 L 285.43971,376.04366 z"
           id="path6347" />
        <path
           style="fill:none;fill-rule:evenodd;stroke:#000000;stroke-width:0.84723985;stroke-linecap:butt;stroke-linejoin:miter;stroke-miterlimit:3.9878788;stroke-dasharray:none;stroke-opacity:1"
           d="M 300.78608,354.95102 L 290.00692,352.75798 L 293.55283,364.17041 L 300.78608,354.95102 z"
           id="path6349" />
        <path
           style="fill:none;fill-rule:evenodd;stroke:#000000;stroke-width:0.84723985;stroke-linecap:butt;stroke-linejoin:miter;stroke-miterlimit:3.9878788;stroke-dasharray:none;stroke-opacity:1"
           d="M 295.49778,353.22029 L 289.16363,385.60765"
           id="path6355" />
        <path
           style="fill:#000000;fill-opacity:1;fill-rule:evenodd;stroke:#000000;stroke-width:0.84723985;stroke-miterlimit:3.9878788;stroke-dasharray:none;stroke-dashoffset:0;stroke-opacity:1"
           d="M 292.29005,358.25183 C 291.4943,355.69127 290.85777,353.57655 290.87552,353.55245 C 290.90311,353.51499 299.70804,355.27563 299.75299,355.32759 C 299.7836,355.36299 293.86171,362.89736 293.79934,362.90237 C 293.76496,362.90513 293.08577,360.81239 292.29004,358.25183 L 292.29005,358.25183 z"
           id="path6369" />
        <path
           style="fill:#000000;fill-opacity:1;fill-rule:evenodd;stroke:#000000;stroke-width:0.84723985;stroke-miterlimit:3.9878788;stroke-dasharray:none;stroke-dashoffset:0;stroke-opacity:1"
           d="M 290.67434,376.5506 C 288.43996,376.09037 286.61184,375.65831 286.61184,375.59047 C 286.61184,375.44236 292.30252,368.15876 292.41825,368.15876 C 292.49306,368.15876 295.31262,377.10667 295.30346,377.31501 C 295.2961,377.48224 294.7981,377.4 290.67434,376.5506 L 290.67434,376.5506 z"
           id="path6371" />
      </g>
      <g
         transform="translate(153.27573,386.22047)"
         id="g6501"
         style="stroke:#000000;stroke-width:1.0629921;stroke-miterlimit:3.9878788;stroke-dasharray:none;stroke-opacity:1">
        <path
           style="fill:none;fill-rule:evenodd;stroke:#000000;stroke-width:1.0629921;stroke-linecap:butt;stroke-linejoin:miter;stroke-miterlimit:3.9878788;stroke-dasharray:none;stroke-opacity:1"
           d="M 70.755763,237.47595 L 95.820797,237.47595"
           id="path6503" />
        <path
           sodipodi:type="arc"
           style="fill:none;fill-opacity:1;stroke:#000000;stroke-width:1.0629921;stroke-miterlimit:3.9878788;stroke-dasharray:none;stroke-dashoffset:0;stroke-opacity:1"
           id="path6505"
           sodipodi:cx="150.69466"
           sodipodi:cy="203.86003"
           sodipodi:rx="3.0409236"
           sodipodi:ry="3.2943337"
           d="M 153.73558,203.86003 A 3.0409236,3.2943337 0 1 1 147.65373,203.86003 A 3.0409236,3.2943337 0 1 1 153.73558,203.86003 z"
           transform="translate(-51.35782,33.790495)" />
        <path
           style="fill:none;fill-rule:evenodd;stroke:#000000;stroke-width:1.0629921;stroke-linecap:butt;stroke-linejoin:miter;stroke-miterlimit:3.9878788;stroke-dasharray:none;stroke-opacity:1"
           d="M 102.76264,237.5636 L 127.66546,237.5636"
           id="path6507" />
      </g>
      <path
         id="path6509"
         d="M 228.41535,623.42217 L 246.66535,582.37099 L 259.91535,523.62099 L 269.91535,525.37099 L 268.91535,586.12099 L 277.41535,623.42217"
         style="fill:none;fill-rule:evenodd;stroke:#000000;stroke-width:1.0629921;stroke-linecap:butt;stroke-linejoin:miter;stroke-miterlimit:3.9878788;stroke-dasharray:none;stroke-opacity:1" />
      <path
         id="path6513"
         d="M 252.91535,556.09934 L 269.91535,558.12099"
         style="fill:none;fill-rule:evenodd;stroke:#000000;stroke-width:1.0629921;stroke-linecap:butt;stroke-linejoin:miter;stroke-miterlimit:3.9878788;stroke-dasharray:none;stroke-opacity:1" />
      <path
         id="path6515"
         d="M 240.41535,596.87099 L 272.41535,600.62099"
         style="fill:none;fill-rule:evenodd;stroke:#000000;stroke-width:1.0629921;stroke-linecap:butt;stroke-linejoin:miter;stroke-miterlimit:3.9878788;stroke-dasharray:none;stroke-opacity:1" />
      <path
         id="path6549"
         d="M 254.17885,597.65881 C 247.37295,596.78442 241.7395,596.03116 241.66008,595.98492 C 241.58066,595.93868 242.79822,593.1166 244.36576,589.71365 C 246.38254,585.33546 248.05321,579.80511 250.07986,570.79855 C 251.65509,563.79819 253.14222,557.84786 253.38464,557.57559 C 253.62705,557.30332 257.08691,557.43504 261.0732,557.86829 L 268.32099,558.65602 L 268.32099,572.9919 C 268.32099,586.37566 268.81851,591.28315 270.87649,598.19893 C 271.34484,599.77282 270.39356,599.74205 254.17885,597.65882 L 254.17885,597.65881 z"
         style="fill:#000000;fill-opacity:1;fill-rule:evenodd;stroke:#000000;stroke-width:1.0629921;stroke-miterlimit:3.9878788;stroke-dasharray:none;stroke-dashoffset:0;stroke-opacity:1" />
      <path
         id="path6559"
         d="M 230.13722,622.20643 C 230.13722,621.36556 240.06676,599.18642 240.77578,598.44357 C 241.28813,597.90678 265.01082,600.14638 270.13879,601.21568 C 271.39894,601.47843 271.91875,602.92816 273.8679,611.61563 C 275.11356,617.16767 276.1252,621.94888 276.11596,622.24056 C 276.10674,622.53225 271.71511,622.77089 266.35681,622.77089 C 257.48951,622.77089 256.50571,622.64387 255.40358,621.35668 C 254.73757,620.57886 253.39678,619.94247 252.424,619.94247 C 251.42111,619.94247 250.2729,620.55479 249.77211,621.35668 C 248.96105,622.65538 248.12312,622.77089 239.51307,622.77089 C 234.35634,622.77089 230.13722,622.51688 230.13722,622.20642 L 230.13722,622.20643 z"
         style="fill:#ffff00;fill-opacity:1;fill-rule:evenodd;stroke:#000000;stroke-width:1.0629921;stroke-miterlimit:3.9878788;stroke-dasharray:none;stroke-dashoffset:0;stroke-opacity:1" />
      <path
         id="path6561"
         d="M 259.28095,556.13109 C 254.34389,555.55653 253.47873,555.2663 253.77796,554.28511 C 253.97326,553.64477 255.55285,546.80581 257.28819,539.08739 C 259.02352,531.36896 260.54529,524.95732 260.66987,524.83926 C 260.79443,524.7212 262.72601,524.94259 264.96223,525.33123 L 269.02809,526.03783 L 269.02809,537.17753 C 269.02809,543.30436 268.82366,550.2731 268.57381,552.6636 C 268.05777,557.60074 268.97332,557.25913 259.28096,556.13111 L 259.28095,556.13109 z"
         style="fill:#ffff00;fill-opacity:1;fill-rule:evenodd;stroke:#000000;stroke-width:1.0629921;stroke-miterlimit:3.9878788;stroke-dasharray:none;stroke-dashoffset:0;stroke-opacity:1" />
    </g>
  </g>
</svg>
